<svg id="Слой_1" data-name="Слой 1" xmlns="http://www.w3.org/2000/svg" viewBox="0 0 250 150"><path d="M76.9,34.9H97.06V41H84.12v7.41h11v6h-11V66.83H76.9Z"/><path d="M104.12,40.94V34.87l23.36,0,5.18,14.19C133.3,51,133.86,53,134.5,55h.2c.64-2,1.18-4,1.82-5.89l5-14.19h7.88V97.5h-6.58V55.11c0-3.11-.38-7.76,0-10.85h.77L141,51.82l-4.52,12.23h-4L127.9,51.82l-3.78-10.88"/><path d="M76.9,65.7H87.83c6.63,0,11.78,1.82,11.78,7.92,0,2.86-1.6,5.91-4.21,6.89v.2a7.27,7.27,0,0,1,5.78,7.51c0,6.5-5.49,9.41-12.43,9.41H76.9ZM87.5,78.49c3.5,0,5-1.48,5-3.8s-1.63-3.42-5-3.42H84.12v7.22Zm.66,13.57c3.93,0,6-1.4,6-4.3s-2-3.94-6-3.94h-4v8.24Z"/><path d="M104.55,65.7h7.22V91.58h37.35v6H104.55Z"/></svg>