<svg width="49" height="49" viewBox="0 0 49 49" fill="none" xmlns="http://www.w3.org/2000/svg">
<path d="M30.625 6.125H10.2083C9.12537 6.125 8.08675 6.55521 7.32098 7.32098C6.55521 8.08675 6.125 9.12537 6.125 10.2083V38.7917C6.125 39.8746 6.55521 40.9132 7.32098 41.679C8.08675 42.4448 9.12537 42.875 10.2083 42.875H38.7917C39.8746 42.875 40.9132 42.4448 41.679 41.679C42.4448 40.9132 42.875 39.8746 42.875 38.7917V18.375L30.625 6.125ZM38.7917 38.7917H10.2083V10.2083H28.5833V20.4167H38.7917V38.7917ZM34.7083 28.5833H14.2917V24.5H34.7083V28.5833ZM28.5833 34.7083H14.2917V30.625H28.5833" fill="white"/>
</svg>
