<?xml version="1.0" standalone="no"?>
<!DOCTYPE svg PUBLIC "-//W3C//DTD SVG 20010904//EN"
 "http://www.w3.org/TR/2001/REC-SVG-20010904/DTD/svg10.dtd">
<svg version="1.0" xmlns="http://www.w3.org/2000/svg"
 width="512.000000pt" height="512.000000pt" viewBox="0 0 512.000000 512.000000"
 preserveAspectRatio="xMidYMid meet">

<g transform="translate(0.000000,512.000000) scale(0.100000,-0.100000)"
fill="#000000" stroke="none">
<path d="M732 4579 c-71 -28 -144 -101 -171 -174 -81 -216 70 -432 299 -429
118 2 225 73 271 179 l24 55 314 0 c173 0 312 -2 310 -4 -2 -2 -40 -23 -84
-46 -372 -195 -658 -493 -841 -875 -88 -185 -153 -411 -169 -595 -3 -36 -8
-79 -11 -96 l-5 -32 -78 -3 c-126 -6 -121 6 -121 -285 l0 -243 26 -20 c25 -20
39 -21 254 -21 215 0 229 1 254 21 l26 20 0 239 c0 292 4 283 -118 288 l-80 4
5 57 c33 377 193 744 447 1027 221 244 545 436 871 515 106 25 109 25 128 -16
27 -56 85 -113 145 -141 145 -69 330 -9 403 131 l24 46 45 -6 c70 -11 259 -70
356 -113 271 -120 538 -336 706 -572 168 -237 291 -555 313 -815 4 -38 8 -80
11 -91 4 -21 -1 -22 -77 -26 -123 -5 -119 4 -119 -288 l0 -239 26 -20 c25 -20
39 -21 254 -21 215 0 229 1 254 21 l26 20 0 239 c0 292 4 283 -119 288 l-80 4
-5 32 c-3 17 -8 60 -11 96 -22 246 -122 537 -265 775 -173 287 -438 534 -745
695 -44 23 -82 44 -84 46 -2 2 137 4 310 4 l314 0 24 -55 c46 -106 153 -177
271 -179 180 -2 320 132 320 306 0 228 -213 377 -425 297 -68 -25 -144 -98
-171 -163 l-19 -46 -551 0 -551 0 -18 46 c-40 104 -163 184 -285 184 -122 0
-245 -80 -285 -184 l-18 -46 -551 0 -551 0 -19 46 c-27 65 -103 138 -171 163
-72 27 -162 27 -233 0z m195 -159 c87 -53 103 -168 32 -239 -63 -63 -156 -61
-219 4 -29 30 -34 43 -37 92 -3 46 0 65 16 91 44 69 140 94 208 52z m1711 0
c47 -29 72 -76 72 -134 0 -87 -63 -150 -150 -150 -87 0 -150 63 -150 150 0 90
63 154 150 154 27 0 58 -8 78 -20z m1710 0 c128 -78 73 -284 -76 -284 -156 0
-213 193 -82 281 43 29 112 31 158 3z m-3478 -2145 l0 -125 -120 0 -120 0 0
125 0 125 120 0 120 0 0 -125z m3620 0 l0 -125 -120 0 -120 0 0 125 0 125 120
0 120 0 0 -125z"/>
<path d="M2331 3693 c-15 -13 -31 -56 -56 -149 -125 -476 -382 -968 -681
-1306 -50 -55 -61 -86 -44 -118 7 -13 97 -148 202 -302 104 -154 188 -280 186
-281 -35 -18 -56 -44 -125 -158 -94 -154 -109 -197 -91 -266 15 -61 85 -134
149 -155 l44 -15 3 -188 c2 -178 4 -191 24 -212 l21 -23 597 0 597 0 21 23
c20 21 22 34 24 212 l3 188 44 15 c27 9 64 34 92 62 55 55 73 112 57 182 -11
52 -165 307 -193 322 -11 6 -22 12 -23 13 -2 1 83 129 188 285 106 156 197
295 202 310 12 34 1 54 -72 138 -285 324 -531 805 -660 1290 -21 77 -37 121
-51 133 -19 15 -46 17 -229 17 -183 0 -210 -2 -229 -17z m149 -681 l0 -538
-54 -23 c-78 -32 -139 -90 -178 -168 -28 -57 -33 -77 -33 -142 0 -103 24 -167
87 -237 59 -64 123 -100 202 -112 157 -25 304 55 373 203 23 50 27 74 28 140
0 71 -4 88 -33 147 -39 79 -99 137 -178 169 l-54 23 0 538 c0 520 1 538 19
538 14 0 21 -12 30 -47 21 -87 92 -296 143 -423 124 -306 313 -633 495 -853
51 -61 63 -83 57 -97 -5 -10 -96 -146 -203 -304 l-194 -286 -427 0 -427 0
-194 286 c-107 158 -198 294 -202 304 -7 13 8 38 63 106 185 231 357 526 480
824 48 117 142 394 155 458 5 23 12 32 26 32 18 0 19 -14 19 -538z m187 -728
c57 -45 86 -107 79 -169 -19 -169 -237 -229 -337 -92 -70 96 -36 222 76 282
49 26 136 16 182 -21z m522 -1018 l64 -109 -32 -29 -31 -28 -630 0 -630 0 -31
28 -32 29 43 74 c24 41 54 91 67 112 l23 37 562 -2 562 -3 65 -109z m-149
-456 l0 -130 -480 0 -480 0 0 130 0 130 480 0 480 0 0 -130z"/>
</g>
</svg>
