<?xml version="1.0" standalone="no"?>
<!DOCTYPE svg PUBLIC "-//W3C//DTD SVG 20010904//EN"
 "http://www.w3.org/TR/2001/REC-SVG-20010904/DTD/svg10.dtd">
<svg version="1.0" xmlns="http://www.w3.org/2000/svg"
 width="512.000000pt" height="512.000000pt" viewBox="0 0 512.000000 512.000000"
 preserveAspectRatio="xMidYMid meet">

<g transform="translate(0.000000,512.000000) scale(0.100000,-0.100000)"
fill="#000000" stroke="none">
<path d="M820 4846 c-70 -19 -120 -47 -165 -91 -51 -49 -582 -793 -612 -855
-37 -80 -43 -140 -43 -433 0 -307 6 -355 57 -449 14 -26 52 -73 85 -104 l58
-55 0 -957 -1 -957 -51 -30 c-29 -16 -67 -49 -85 -73 -53 -70 -65 -131 -61
-300 3 -134 5 -150 27 -185 13 -21 42 -50 64 -65 l41 -27 2426 0 2426 0 41 27
c22 15 51 44 64 65 22 35 24 51 27 185 4 169 -8 230 -61 300 -18 24 -56 57
-85 73 l-51 30 -1 957 0 957 58 55 c33 31 71 78 85 104 51 94 57 142 57 449 0
299 -6 354 -47 438 -13 28 -151 228 -307 445 -296 415 -326 448 -426 487 -42
17 -149 18 -1760 20 -1343 1 -1725 -1 -1760 -11z m327 -228 c-13 -24 -108
-188 -211 -365 -102 -177 -186 -327 -186 -333 0 -7 -77 -10 -231 -10 -181 0
-229 3 -223 13 4 6 117 166 252 354 210 295 249 345 285 362 37 18 61 21 190
21 l149 0 -25 -42z m565 -2 c-9 -23 -75 -192 -147 -374 l-130 -331 -234 -1
-233 0 14 23 c8 12 106 181 218 375 l203 352 163 0 164 0 -18 -44z m528 32 c0
-14 -107 -681 -115 -715 l-5 -23 -236 0 c-134 0 -234 4 -232 9 2 5 68 174 148
375 l144 366 148 0 c111 0 148 -3 148 -12z m492 -343 c32 -192 58 -360 58
-372 l0 -23 -230 0 c-212 0 -230 1 -230 18 0 19 109 700 115 720 4 9 32 12
117 10 l112 -3 58 -350z m588 -11 c80 -201 147 -370 148 -375 2 -5 -98 -9
-232 -9 l-236 0 -5 23 c-8 34 -115 701 -115 715 0 9 37 12 148 12 l148 0 144
-366z m600 14 c112 -194 210 -363 218 -375 l14 -23 -233 0 -234 1 -130 331
c-71 182 -138 351 -147 374 l-18 44 164 0 163 0 203 -352z m366 332 c37 -18
73 -64 286 -363 135 -188 248 -348 252 -354 6 -10 -42 -13 -223 -13 -154 0
-231 3 -231 10 0 6 -84 156 -186 333 -103 177 -198 341 -211 365 l-25 42 148
0 c128 0 153 -3 190 -20z m-3586 -1187 c0 -142 -5 -274 -10 -294 -14 -48 -84
-127 -135 -150 -49 -23 -149 -25 -198 -4 -50 21 -104 70 -130 119 -21 39 -22
55 -25 314 l-3 272 250 0 251 0 0 -257z m708 22 c1 -138 -2 -251 -8 -282 -16
-77 -64 -141 -129 -175 -144 -75 -327 7 -360 162 -12 55 -15 512 -4 524 4 3
117 5 252 4 l246 -3 3 -230z m700 -14 c2 -193 -1 -255 -12 -295 -53 -178 -284
-237 -415 -105 -68 67 -71 83 -71 382 l0 267 248 -2 247 -3 3 -244z m702 -13
c0 -254 -1 -265 -24 -313 -25 -55 -81 -110 -132 -131 -43 -18 -145 -18 -188 0
-51 21 -107 76 -132 131 -23 48 -24 59 -24 313 l0 262 250 0 250 0 0 -262z
m700 -5 c0 -299 -3 -315 -71 -382 -100 -101 -278 -93 -367 15 -55 66 -62 109
-62 379 0 133 3 245 7 248 3 4 116 7 250 7 l243 0 0 -267z m708 27 c1 -142 -2
-256 -9 -288 -14 -70 -61 -129 -129 -165 -49 -25 -63 -28 -126 -25 -58 3 -80
9 -120 33 -59 37 -108 113 -118 181 -8 63 -8 489 1 498 4 3 117 5 252 4 l246
-3 3 -235z m700 -32 c-3 -260 -4 -275 -25 -314 -28 -53 -91 -107 -142 -122
-57 -17 -140 -14 -186 7 -51 23 -121 102 -135 150 -5 20 -10 152 -10 294 l0
257 251 0 250 0 -3 -272z m-4065 -534 c87 -78 183 -114 302 -114 119 0 222 40
310 121 l42 39 24 -26 c39 -42 121 -91 190 -114 54 -19 80 -21 160 -18 81 4
107 10 162 36 37 17 89 52 116 77 l50 47 43 -42 c24 -23 77 -58 117 -78 73
-36 77 -37 191 -37 114 0 118 1 191 37 40 20 93 55 117 78 l43 42 48 -45 c117
-109 285 -146 444 -97 61 19 163 83 196 123 12 16 17 14 55 -21 98 -91 202
-127 340 -120 110 6 194 40 272 111 l52 47 38 -36 c84 -80 191 -124 299 -124
l65 0 0 -915 0 -915 -740 0 -739 0 -3 698 -3 697 -24 52 c-29 65 -101 134
-166 159 -47 18 -80 19 -485 19 -405 0 -438 -1 -485 -19 -65 -25 -137 -94
-166 -159 l-24 -52 -3 -697 -3 -698 -149 0 c-163 0 -193 -7 -216 -51 -27 -52
-8 -115 41 -137 20 -9 413 -12 1655 -12 1242 0 1635 -3 1655 -12 44 -20 55
-55 55 -178 l0 -110 -2360 0 -2360 0 0 110 c0 123 11 158 55 178 18 8 96 12
245 12 237 0 261 4 286 51 18 35 18 63 0 98 -23 44 -52 51 -226 51 l-160 0 0
915 0 915 65 0 c108 0 219 46 295 122 19 19 37 36 39 37 1 0 26 -20 54 -45z
m2122 -528 c67 -28 65 -2 65 -746 l0 -670 -480 0 -480 0 0 673 c0 517 3 678
13 697 7 14 28 33 47 42 32 16 73 18 418 18 308 0 389 -3 417 -14z"/>
<path d="M849 2580 c-68 -12 -121 -43 -173 -101 -72 -81 -78 -111 -74 -416 l3
-258 27 -51 c15 -28 48 -70 73 -92 80 -70 100 -73 457 -70 359 3 355 3 441 98
72 80 77 105 77 396 0 231 -2 258 -20 308 -26 69 -85 130 -158 164 -57 27 -57
27 -332 29 -151 1 -296 -2 -321 -7z m602 -228 l29 -32 0 -236 0 -236 -29 -29
-29 -29 -281 0 -280 0 -28 24 -28 24 -3 237 c-3 205 -1 240 13 262 33 49 58
53 343 50 l264 -2 29 -33z"/>
<path d="M3683 2580 c-100 -21 -188 -95 -223 -186 -18 -50 -20 -77 -20 -308 0
-291 5 -316 77 -396 86 -95 82 -95 441 -98 357 -3 377 0 457 70 25 22 58 64
73 92 l27 51 3 258 c4 309 -1 336 -78 420 -31 34 -69 63 -102 78 -51 23 -63
24 -333 26 -154 1 -299 -2 -322 -7z m572 -204 c64 -27 66 -37 63 -301 l-3
-237 -28 -24 -28 -24 -280 0 -281 0 -29 29 -29 29 0 235 0 235 25 31 c14 16
36 32 48 34 12 2 131 5 265 6 189 1 250 -2 277 -13z"/>
<path d="M1101 946 c-87 -48 -50 -186 49 -186 51 0 100 49 100 99 0 75 -83
124 -149 87z"/>
</g>
</svg>
