<?xml version="1.0" standalone="no"?>
<!DOCTYPE svg PUBLIC "-//W3C//DTD SVG 20010904//EN"
 "http://www.w3.org/TR/2001/REC-SVG-20010904/DTD/svg10.dtd">
<svg version="1.0" xmlns="http://www.w3.org/2000/svg"
 width="512.000000pt" height="512.000000pt" viewBox="0 0 512.000000 512.000000"
 preserveAspectRatio="xMidYMid meet">

<g transform="translate(0.000000,512.000000) scale(0.100000,-0.100000)"
fill="#000000" stroke="none">
<path d="M3970 5105 c-256 -47 -475 -182 -624 -385 -62 -84 -116 -191 -116
-230 0 -61 77 -93 120 -50 11 11 34 47 51 82 120 237 359 403 634 439 263 34
518 -59 707 -259 324 -344 292 -850 -86 -1372 -113 -156 -391 -457 -499 -540
l-27 -22 -179 179 c-251 250 -384 425 -504 660 -85 167 -127 310 -142 486 -5
58 -12 84 -26 98 -24 24 -70 24 -100 0 -22 -18 -24 -26 -21 -98 10 -300 154
-630 420 -963 42 -52 96 -117 121 -143 42 -46 44 -48 22 -54 -50 -13 -162 -74
-201 -109 -126 -114 -103 -268 55 -363 135 -82 324 -123 560 -123 413 -1 695
132 695 326 0 62 -21 105 -76 156 -42 39 -173 110 -201 110 -25 0 -12 22 57
101 361 409 540 844 500 1211 -45 411 -343 750 -743 849 -107 26 -296 33 -397
14z m-18 -2372 c109 -100 155 -133 188 -133 26 0 48 17 225 174 l44 39 48 -12
c62 -16 148 -55 190 -87 45 -35 43 -64 -8 -107 -87 -75 -276 -120 -504 -120
-228 0 -418 46 -506 121 -63 54 -49 92 51 143 50 25 146 58 172 58 9 1 54 -33
100 -76z"/>
<path d="M3989 4546 c-80 -32 -120 -59 -172 -115 -236 -252 -93 -662 253 -723
209 -36 430 108 485 318 58 225 -66 451 -290 528 -74 25 -206 21 -276 -8z
m266 -150 c179 -83 219 -321 78 -462 -54 -54 -114 -78 -198 -78 -86 0 -146 25
-204 84 -146 150 -80 410 119 471 55 16 153 10 205 -15z"/>
<path d="M1065 3566 c-466 -77 -851 -405 -999 -851 -79 -238 -79 -530 0 -806
95 -333 321 -709 636 -1060 44 -49 79 -91 77 -94 -2 -2 -42 -17 -88 -34 -248
-91 -366 -247 -301 -398 68 -159 319 -274 682 -313 393 -42 848 61 999 226 67
73 88 176 53 259 -35 86 -158 175 -319 234 l-74 27 67 75 c69 76 214 253 245
299 34 50 14 115 -38 120 -46 5 -59 -5 -152 -122 -151 -188 -340 -386 -530
-555 l-63 -55 -47 38 c-81 66 -320 303 -417 414 -601 686 -783 1316 -531 1836
256 529 880 762 1427 534 172 -71 369 -233 475 -390 144 -214 200 -414 190
-675 -9 -231 -61 -410 -194 -673 -88 -173 -93 -197 -50 -227 36 -25 72 -19
103 18 42 50 170 319 210 442 20 61 45 148 55 195 26 115 36 342 19 462 -71
527 -469 953 -995 1063 -105 23 -336 28 -440 11z m-77 -3009 c156 -148 232
-207 268 -207 38 0 99 46 256 191 l96 89 89 -26 c181 -52 293 -127 293 -196 0
-101 -231 -210 -520 -243 -69 -8 -162 -15 -206 -15 -161 0 -386 33 -499 73
-137 49 -245 129 -245 180 0 64 128 153 291 201 46 14 87 25 92 25 4 1 42 -32
85 -72z"/>
<path d="M1124 2854 c-33 -8 -93 -34 -134 -57 -60 -34 -76 -48 -84 -74 -7 -25
-5 -38 8 -58 28 -42 60 -42 140 -2 85 43 134 57 201 57 154 0 293 -89 359
-230 28 -59 31 -74 31 -165 0 -91 -3 -106 -31 -165 -120 -249 -441 -304 -636
-109 -90 90 -130 218 -108 346 11 64 11 75 -4 98 -29 44 -92 45 -122 1 -8 -13
-20 -61 -26 -107 -22 -165 33 -321 156 -445 343 -343 925 -105 926 380 0 152
-52 278 -160 386 -135 135 -327 189 -516 144z"/>
<path d="M3063 2732 c-46 -10 -73 -36 -73 -71 0 -40 29 -72 65 -74 131 -5 178
14 178 72 0 47 -31 73 -90 77 -26 1 -63 -1 -80 -4z"/>
<path d="M2758 2594 c-40 -21 -98 -102 -98 -135 0 -39 32 -69 74 -69 29 0 42
9 85 56 59 65 66 100 26 139 -27 28 -48 31 -87 9z"/>
<path d="M2620 2253 c-39 -14 -50 -36 -50 -98 0 -72 15 -121 40 -135 30 -16
69 -11 91 11 19 19 21 30 17 100 -2 62 -7 83 -23 98 -23 22 -53 32 -75 24z"/>
<path d="M2742 1880 c-35 -33 -29 -79 16 -121 77 -74 110 -84 156 -48 22 17
26 28 24 57 -3 31 -12 44 -63 84 -65 53 -98 60 -133 28z"/>
<path d="M3130 1758 c-70 -26 -67 -112 5 -136 50 -17 140 -9 166 14 26 23 25
85 0 108 -25 23 -124 30 -171 14z"/>
<path d="M3534 1763 c-54 -10 -76 -85 -37 -124 26 -26 114 -35 168 -17 46 15
65 51 49 96 -14 41 -96 62 -180 45z"/>
<path d="M3927 1760 c-56 -17 -75 -77 -38 -117 42 -44 175 -42 211 4 26 33 25
56 -3 88 -18 22 -33 27 -82 30 -33 3 -73 0 -88 -5z"/>
<path d="M4320 1757 c-70 -24 -67 -111 5 -135 54 -18 142 -9 168 17 25 25 25
78 0 102 -24 23 -126 33 -173 16z"/>
<path d="M4671 1654 c-41 -52 -24 -87 67 -145 58 -37 94 -38 121 -3 39 50 27
82 -50 134 -70 48 -108 52 -138 14z"/>
<path d="M4960 1387 c-52 -26 -55 -68 -10 -171 30 -70 97 -80 136 -20 17 25
17 29 -6 95 -31 93 -68 122 -120 96z"/>
<path d="M4991 993 c-26 -22 -57 -137 -47 -176 4 -19 17 -33 38 -41 57 -25 91
1 114 85 19 75 18 96 -11 124 -28 29 -64 32 -94 8z"/>
<path d="M4813 654 c-45 -23 -113 -99 -113 -127 0 -32 40 -67 77 -67 37 0 127
70 141 109 23 65 -41 116 -105 85z"/>
<path d="M4418 491 c-64 -8 -90 -31 -86 -78 5 -59 39 -77 128 -68 84 8 110 27
110 79 0 25 -7 40 -26 55 -27 21 -41 23 -126 12z"/>
<path d="M3190 483 c-52 -20 -68 -85 -30 -123 17 -17 33 -20 100 -20 93 0 120
16 120 73 0 52 -28 71 -108 74 -37 1 -74 0 -82 -4z"/>
<path d="M3573 478 c-48 -23 -51 -103 -4 -127 11 -6 53 -11 94 -11 64 0 76 3
95 23 29 31 28 72 -3 102 -21 22 -33 25 -92 24 -37 0 -78 -5 -90 -11z"/>
<path d="M3955 465 c-14 -13 -25 -36 -25 -50 0 -14 11 -37 25 -50 21 -22 33
-25 94 -25 38 0 77 3 86 6 24 10 46 60 39 89 -10 41 -40 55 -122 55 -64 0 -76
-3 -97 -25z"/>
<path d="M2377 469 c-48 -28 -38 -110 15 -128 71 -25 176 -6 192 34 12 32 6
62 -17 83 -20 19 -35 22 -98 22 -41 0 -82 -5 -92 -11z"/>
<path d="M2760 458 c-26 -28 -26 -68 0 -96 41 -44 168 -42 208 3 27 32 28 55
1 89 -19 24 -26 26 -104 26 -74 0 -87 -3 -105 -22z"/>
</g>
</svg>
