<?xml version="1.0" standalone="no"?>
<!DOCTYPE svg PUBLIC "-//W3C//DTD SVG 20010904//EN"
        "http://www.w3.org/TR/2001/REC-SVG-20010904/DTD/svg10.dtd">
<svg version="1.0" xmlns="http://www.w3.org/2000/svg"
     width="512.000000pt" height="512.000000pt" viewBox="0 0 512.000000 512.000000"
     preserveAspectRatio="xMidYMid meet">

    <g transform="translate(0.000000,512.000000) scale(0.100000,-0.100000)"
       fill="#000000" stroke="none">
        <path class="path" fill="black" stroke="black" stroke-width="40" d="M2045 4725 c-37 -36 -34 -86 6 -119 17 -14 42 -26 56 -26 36 0 83 51
83 90 0 71 -94 107 -145 55z"/>
        <path class="path" fill="black" stroke="black" stroke-width="40" d="M4578 4176 c-26 -7 -55 -19 -65 -26 -86 -65 -123 -133 -123 -225 0
-148 108 -255 260 -255 82 0 132 22 187 83 74 80 90 194 42 288 -55 109 -185
167 -301 135z m111 -96 c19 -5 50 -24 68 -42 105 -102 34 -268 -114 -268 -90
0 -153 63 -153 153 0 77 35 127 107 153 47 16 50 16 92 4z"/>
        <path class="path" fill="black" stroke="black" stroke-width="40" d="M2330 4114 c-132 -25 -185 -39 -275 -73 -58 -22 -150 -64 -205 -94
l-99 -55 -38 20 c-47 24 -127 19 -176 -11 -17 -11 -147 -136 -289 -278 -224
-226 -258 -264 -268 -302 -16 -61 -5 -121 32 -172 l30 -42 -50 -50 c-47 -47
-53 -50 -77 -39 -32 15 -85 15 -122 1 -32 -12 -257 -231 -279 -271 -17 -32
-18 -95 -3 -135 14 -37 334 -359 381 -384 87 -45 131 -24 289 137 110 113 127
135 134 172 4 25 2 56 -5 78 -12 36 -12 37 38 87 l50 50 41 -35 c41 -35 98
-58 142 -58 33 1 97 31 137 65 l34 28 229 -229 229 -229 -212 -212 -213 -213
-81 0 c-180 0 -328 -65 -470 -205 -75 -74 -99 -105 -133 -175 -22 -47 -50
-121 -62 -165 -37 -145 -24 -355 29 -465 13 -26 24 -36 46 -38 26 -3 50 18
232 199 l202 202 123 -6 c67 -4 123 -8 125 -10 1 -1 4 -57 6 -124 l3 -123
-202 -202 c-142 -142 -203 -210 -203 -225 0 -65 234 -118 412 -94 179 24 322
92 438 210 136 139 190 260 197 441 l5 115 211 212 212 213 72 -72 73 -72 -31
-32 c-24 -24 -30 -39 -26 -56 4 -13 179 -195 389 -404 342 -340 388 -383 432
-398 63 -20 120 -20 181 1 38 12 74 41 167 131 140 136 173 191 173 287 -1
116 6 106 -413 528 -264 265 -393 387 -407 387 -12 0 -32 -11 -45 -25 l-24
-26 -73 73 -73 73 226 226 226 226 107 6 c158 8 284 56 407 156 120 96 215
250 248 398 31 142 13 340 -42 452 -34 70 -44 64 -271 -163 l-206 -205 -121 6
-122 6 -6 51 c-3 28 -6 85 -6 126 l0 75 200 200 c233 233 236 239 147 280
-131 60 -335 71 -482 25 -125 -39 -202 -86 -300 -185 -137 -137 -201 -277
-212 -466 l-6 -97 -226 -226 -226 -226 -229 229 -228 228 35 46 c63 83 72 160
26 234 -25 41 -22 58 32 166 75 150 164 260 295 364 46 37 86 74 89 84 9 26
-4 47 -38 59 -34 11 -216 22 -257 14z m110 -97 c0 -1 -36 -39 -80 -83 -86 -89
-183 -230 -226 -331 l-28 -64 -137 137 c-76 76 -135 142 -132 147 9 14 239
123 310 146 92 31 293 64 293 48z m-762 -201 c39 -21 448 -437 457 -464 4 -13
4 -33 1 -45 -3 -12 -124 -140 -269 -284 -271 -271 -280 -278 -330 -252 -36 19
-445 431 -458 461 -6 15 -8 40 -4 55 7 30 455 489 510 524 36 23 57 24 93 5z
m2222 -7 c25 -5 52 -12 59 -15 10 -3 -45 -65 -169 -189 l-183 -183 7 -179 c8
-218 5 -213 135 -213 47 0 123 -3 169 -7 l83 -6 188 187 188 187 13 -59 c20
-94 9 -251 -23 -341 -63 -177 -201 -315 -377 -378 -60 -22 -97 -28 -190 -31
l-115 -4 -666 -665 -667 -666 -4 -131 c-4 -112 -8 -140 -30 -193 -114 -272
-411 -433 -707 -383 l-73 12 185 187 186 186 -5 160 c-6 187 -8 201 -33 214
-10 6 -96 13 -190 17 l-173 7 -183 -183 c-100 -100 -185 -178 -189 -172 -17
27 -26 165 -17 241 21 169 83 293 200 402 123 115 238 159 419 159 l97 0 662
663 663 662 0 85 c1 189 57 327 185 455 125 125 261 183 435 184 41 0 95 -4
120 -10z m-1493 -1316 l-127 -128 -230 230 -230 230 127 127 128 128 230 -230
230 -230 -128 -127z m-1135 285 l-52 -53 -105 105 -105 105 52 52 53 53 105
-105 105 -105 -53 -52z m-224 -21 c101 -102 172 -181 172 -192 0 -30 -230
-255 -260 -255 -18 0 -67 43 -192 168 -143 143 -168 172 -168 198 0 25 19 48
113 142 83 81 121 112 138 112 19 0 68 -43 197 -173z m2227 -877 l70 -70 -128
-128 -127 -127 -72 73 -73 72 125 125 c69 69 127 125 130 125 3 0 37 -32 75
-70z m916 -795 c40 -86 22 -133 -103 -261 -134 -138 -200 -168 -281 -128 -18
9 -188 172 -379 362 l-348 347 202 202 203 203 343 -342 c225 -225 351 -357
363 -383z"/>
        <path class="path" fill="black" stroke="black" stroke-width="40" d="M2723 2208 c-570 -570 -578 -579 -541 -616 7 -7 21 -12 33 -12 13 0
204 183 580 560 544 544 559 560 549 587 -7 21 -17 29 -39 31 -27 2 -77 -44
-582 -550z"/>
        <path class="path" fill="black" stroke="black" stroke-width="40" d="M369 1177 c-155 -58 -205 -236 -101 -357 46 -54 101 -80 172 -80 129
0 223 96 222 227 -1 82 -49 160 -124 199 -42 22 -126 27 -169 11z m152 -123
c55 -53 55 -137 -1 -186 -25 -23 -40 -28 -81 -28 -44 0 -55 4 -84 33 -44 44
-54 94 -28 143 39 76 135 95 194 38z"/>
        <path class="path" fill="black" stroke="black" stroke-width="40" d="M4531 514 c-61 -51 -26 -144 54 -144 79 0 112 84 56 141 -36 36 -70
37 -110 3z"/>
    </g>
</svg>
