<?xml version="1.0" standalone="no"?>
<!DOCTYPE svg PUBLIC "-//W3C//DTD SVG 20010904//EN"
 "http://www.w3.org/TR/2001/REC-SVG-20010904/DTD/svg10.dtd">
<svg version="1.0" xmlns="http://www.w3.org/2000/svg"
 width="306.000000pt" height="306.000000pt" viewBox="0 0 306.000000 306.000000"
 preserveAspectRatio="xMidYMid meet">
<metadata>
Created by potrace 1.14, written by Peter Selinger 2001-2017
</metadata>
<g transform="translate(0.000000,306.000000) scale(0.100000,-0.100000)"
fill="#000000" stroke="none">
<path d="M660 1530 l0 -750 188 0 c216 0 265 10 329 65 103 88 95 263 -14 322
-18 10 -33 18 -33 19 0 1 13 16 29 33 76 81 66 220 -20 283 -36 26 -134 48
-219 48 l-75 0 2 127 2 128 118 2 c65 1 124 2 131 3 10 0 12 19 10 73 l-3 72
-130 3 -130 2 3 85 3 85 150 0 149 0 0 75 0 75 -245 0 -245 0 0 -750z m356
-155 c8 -11 14 -35 12 -54 -4 -50 -39 -72 -117 -74 l-62 -2 -2 78 -2 79 78 -4
c65 -3 81 -7 93 -23z m29 -300 c29 -28 33 -79 10 -112 -19 -28 -72 -43 -147
-43 l-58 0 0 90 0 90 85 0 c78 0 88 -2 110 -25z"/>
<path d="M1310 2205 l0 -75 238 0 237 0 34 -98 c19 -53 63 -177 99 -275 l66
-178 54 3 55 3 68 185 68 185 1 -513 0 -512 -362 2 -363 3 -2 305 -2 305 -91
3 -90 3 0 -386 0 -385 540 0 540 0 0 750 0 750 -99 0 -100 0 -19 -52 c-33 -89
-110 -310 -125 -363 l-15 -50 -11 28 c-6 16 -11 32 -11 37 0 5 -19 62 -43 127
-24 65 -56 153 -71 196 l-28 77 -284 0 -284 0 0 -75z"/>
</g>
</svg>
